<?xml version="1.0" encoding="utf-8"?> <!-- Generator: IcoMoon.io --> <!DOCTYPE svg PUBLIC "-//W3C//DTD SVG 1.1//EN" "http://www.w3.org/Graphics/SVG/1.1/DTD/svg11.dtd"> <svg fill="#386166" xmlns:xlink="http://www.w3.org/1999/xlink" xmlns="http://www.w3.org/2000/svg" width="100" height="100" viewBox="0 0 100 100"><g><path d="M 96.003,21.169l-28.741,28.916l 28.741,28.744c 1.203,1.2, 1.203,3.147,0,4.35 l-13.050,13.047c-1.197,1.203-3.144,1.203-4.347,0l-28.694-28.694l-28.522,28.694c-1.2,1.203-3.147,1.203-4.35,0l-13.047-13.047 c-1.2-1.203-1.2-3.15,0-4.35l 28.522-28.694L 3.997,21.616c-1.2-1.2-1.2-3.147,0-4.35l 13.047-13.047 c 1.2-1.203, 3.147-1.203, 4.35,0l 28.469,28.469l 28.747-28.916c 1.203-1.203, 3.15-1.203, 4.347,0l 13.050,13.047 C 97.203,18.022, 97.203,19.969, 96.003,21.169z"></path></g></svg>