<?xml version="1.0" encoding="utf-8"?> <!-- Generator: IcoMoon.io --> <!DOCTYPE svg PUBLIC "-//W3C//DTD SVG 1.1//EN" "http://www.w3.org/Graphics/SVG/1.1/DTD/svg11.dtd"> <svg width="100.00000762939453" height="100.00000762939453" viewBox="0 0 100.00000762939453 100.00000762939453" xmlns="http://www.w3.org/2000/svg" xmlns:xlink="http://www.w3.org/1999/xlink" fill="#4c7175"><g><path d="M 50,100c-27.613,0-50-22.387-50-50c0-27.613, 22.387-50, 50-50s 50,22.387, 50,50 C 100,77.612, 77.612,100, 50,100z M 72.288,36.744c-2.438-2.444-6.394-2.444-8.838,0L 45.775,54.419L 36.938,45.581 c-2.444-2.444-6.394-2.444-8.838,0s-2.444,6.394,0,8.838l 13.256,13.256c 2.444,2.444, 6.394,2.444, 8.838,0l 22.094-22.094 C 74.731,43.138, 74.731,39.181, 72.288,36.744z"></path></g></svg>