<?xml version="1.0" encoding="utf-8"?> <!-- Generator: IcoMoon.io --> <!DOCTYPE svg PUBLIC "-//W3C//DTD SVG 1.1//EN" "http://www.w3.org/Graphics/SVG/1.1/DTD/svg11.dtd"> <svg width="32" height="32" viewBox="0 0 32 32" xmlns="http://www.w3.org/2000/svg" xmlns:xlink="http://www.w3.org/1999/xlink" fill="#323232"><g><path d="M 5.582,20.054L 20.468,5.168l 6.369,6.369L 11.951,26.423L 5.582,20.054z M 21.153,8.758l-0.698-0.697L 8.474,20.041l 0.698,0.698L 21.153,8.758z M 22.549,10.154l-0.698-0.698L 9.87,21.438l 0.697,0.697 L 22.549,10.154z M 23.945,11.55l-0.698-0.698L 11.266,22.833l 0.698,0.698L 23.945,11.55z M 23.319,2.356 c 0.781-0.783, 2.045-0.788, 2.82-0.013l 3.512,3.512c 0.775,0.775, 0.77,2.038-0.012,2.82l-2.17,2.17l-6.32-6.32L 23.319,2.356z M 5.092,20.883l 6.030,6.030L 5.838,28.79l-2.623-2.623L 5.092,20.883z M 4.837,29.117l-3.066,1.117l 1.117-3.066L 4.837,29.117z"></path></g></svg>