<?xml version="1.0" encoding="utf-8"?> <!-- Generator: IcoMoon.io --> <!DOCTYPE svg PUBLIC "-//W3C//DTD SVG 1.1//EN" "http://www.w3.org/Graphics/SVG/1.1/DTD/svg11.dtd"> <svg fill="#323232" xmlns:xlink="http://www.w3.org/1999/xlink" xmlns="http://www.w3.org/2000/svg" width="32" height="32" viewBox="0 0 32 32"><g><path d="M 30,32L 2,32 c-1.104,0-2-0.896-2-2L0,2 c0-1.104, 0.896-2, 2-2l 24,0 l 6,6l0,24 C 32,31.104, 31.104,32, 30,32z M 8,27c0,0.553, 0.448,1, 1,1l 14,0 c 0.553,0, 1-0.447, 1-1l0-8 c0-0.553-0.447-1-1-1L 9,18 c-0.552,0-1,0.447-1,1L 8,27 z M 22,5c0-0.553-0.447-1-1-1s-1,0.447-1,1l0,3 c0,0.553, 0.447,1, 1,1s 1-0.447, 1-1L 22,5 z M 28,7l-3-3l-1,0 l0,7 c0,0.553-0.447,1-1,1L 9,12 c-0.552,0-1-0.447-1-1L 8,4 L 5,4 C 4.448,4, 4,4.447, 4,5l0,22 c0,0.553, 0.448,1, 1,1l 1,0 L 6,17 c0-0.553, 0.448-1, 1-1l 18,0 c 0.553,0, 1,0.447, 1,1l0,11 l 1,0 c 0.553,0, 1-0.447, 1-1L 28,7 z"></path></g></svg>