<?xml version="1.0" encoding="utf-8"?> <!-- Generator: IcoMoon.io --> <!DOCTYPE svg PUBLIC "-//W3C//DTD SVG 1.1//EN" "http://www.w3.org/Graphics/SVG/1.1/DTD/svg11.dtd"> <svg width="32" height="32" viewBox="0 0 32 32" xmlns="http://www.w3.org/2000/svg" xmlns:xlink="http://www.w3.org/1999/xlink" fill="#323232"><g><path d="M 14,16.333c0-0.92, 0.747-1.667, 1.667-1.667s 1.667,0.747, 1.667,1.667S 16.587,18, 15.667,18 S 14,17.253, 14,16.333z M 15.667,12c-2.393,0-4.333,1.94-4.333,4.333s 1.94,4.333, 4.333,4.333s 4.333-1.94, 4.333-4.333S 18.060,12, 15.667,12z M 4.44,19.52 c 0.253,0.9, 0.613,1.753, 1.067,2.546l-2,2.187c-0.573,0.573-0.573,1.5,0,2.073l 2.167,2.167c 0.573,0.573, 1.5,0.573, 2.073,0l 2.187-2 c 0.793,0.453, 1.647,0.813, 2.546,1.067L 12.667,30.533c0,0.813, 0.653,1.467, 1.467,1.467l 3.067,0 c 0.813,0, 1.467-0.653, 1.467-1.467l 0.186-2.973 c 0.901-0.253, 1.754-0.613, 2.547-1.067l 2.187,2c 0.573,0.573, 1.5,0.573, 2.073,0l 2.167-2.167c 0.573-0.573, 0.573-1.5,0-2.073l-2-2.187 c 0.453-0.793, 0.813-1.647, 1.067-2.546L 29.867,19.333c 0.813,0, 1.467-0.653, 1.467-1.467l0-3.067 c0-0.813-0.653-1.467-1.467-1.467l-2.973-0.187 c-0.253-0.9-0.613-1.753-1.067-2.547l 2-2.187c 0.573-0.573, 0.573-1.5,0-2.073l-2.167-2.167c-0.573-0.573-1.5-0.573-2.073,0l-2.187,2 c-0.793-0.453-1.647-0.813-2.547-1.067L 18.667,2.133C 18.667,1.32, 18.013,0.667, 17.2,0.667l-3.067,0 C 13.32,0.667, 12.667,1.32, 12.667,2.133l-0.187,2.973 c-0.9,0.253-1.753,0.613-2.546,1.067l-2.187-2c-0.573-0.573-1.5-0.573-2.073,0L 3.507,6.34c-0.573,0.573-0.573,1.5,0,2.073l 2,2.187 c-0.453,0.793-0.813,1.647-1.067,2.547L 1.467,13.333C 0.653,13.333,0,13.987,0,14.8l0,3.067 C0,18.68, 0.653,19.333, 1.467,19.333L 4.44,19.52z M 15.667,9.333 C 19.533,9.333, 22.667,12.467, 22.667,16.333S 19.533,23.333, 15.667,23.333S 8.667,20.2, 8.667,16.333S 11.8,9.333, 15.667,9.333z"></path></g></svg>