<?xml version="1.0" encoding="utf-8"?> <!-- Generator: IcoMoon.io --> <!DOCTYPE svg PUBLIC "-//W3C//DTD SVG 1.1//EN" "http://www.w3.org/Graphics/SVG/1.1/DTD/svg11.dtd"> <svg width="100.00000762939453" height="100.00000762939453" viewBox="0 0 100.00000762939453 100.00000762939453" xmlns="http://www.w3.org/2000/svg" xmlns:xlink="http://www.w3.org/1999/xlink" fill="#8ebdb6"><g><path d="M 96.875,37.5L 62.5,37.5 L 62.5,3.125 c0-1.726-1.399-3.125-3.125-3.125l-18.75,0 c-1.726,0-3.125,1.399-3.125,3.125l0,34.375 L 3.125,37.5 c-1.726,0-3.125,1.399-3.125,3.125l0,18.75 c0,1.726, 1.399,3.125, 3.125,3.125l 34.375,0 l0,34.375 c0,1.726, 1.399,3.125, 3.125,3.125l 18.75,0 c 1.726,0, 3.125-1.399, 3.125-3.125L 62.5,62.5 l 34.375,0 c 1.726,0, 3.125-1.399, 3.125-3.125l0-18.75 C 100,38.899, 98.601,37.5, 96.875,37.5z"></path></g></svg>