<?xml version="1.0" encoding="utf-8"?> <!-- Generator: IcoMoon.io --> <!DOCTYPE svg PUBLIC "-//W3C//DTD SVG 1.1//EN" "http://www.w3.org/Graphics/SVG/1.1/DTD/svg11.dtd"> <svg width="32" height="32" viewBox="0 0 32 32" xmlns="http://www.w3.org/2000/svg" xmlns:xlink="http://www.w3.org/1999/xlink" fill="#323232"><g><path d="M 29.333,12l-2.667,0 L 26.667,1.333 L 5.333,1.333 l0,10.667 L 2.667,12 c-1.467,0-2.667,1.2-2.667,2.667l0,13.333 c0,1.467, 0.9,2.667, 2,2.667L 5.333,30.667 l0,1.333 l 21.333,0 l0-1.333 l 3.333,0 c 1.1,0, 2-1.2, 2-2.667L 32,14.667 C 32,13.2, 30.8,12, 29.333,12z M 5.333,29.333L 4,29.333 l0-6.667 l 1.333,0 L 5.333,29.333 z M 24,29.333L 8,29.333 l0-6.667 l 2.667,0 l0,1.333 l 10.667,0 l0-1.333 l 2.667,0 L 24,29.333 z M 24,12L 8,12 L 8,4 l 16,0 L 24,12 z M 28,29.333l-1.333,0 l0-6.667 l 1.333,0 L 28,29.333 z M 29.333,16l-2.667,0 l0-1.333 l 2.667,0 L 29.333,16 zM 10.667,26.667l 10.667,0 l0-1.333 L 10.667,25.333 L 10.667,26.667 z"></path></g></svg>