<?xml version="1.0" encoding="utf-8"?> <!-- Generator: IcoMoon.io --> <!DOCTYPE svg PUBLIC "-//W3C//DTD SVG 1.1//EN" "http://www.w3.org/Graphics/SVG/1.1/DTD/svg11.dtd"> <svg width="32" height="32" viewBox="0 0 32 32" xmlns="http://www.w3.org/2000/svg" xmlns:xlink="http://www.w3.org/1999/xlink" fill="#323232"><g><path d="M 2.4,11.203l 27.2,0 c 0.912,0, 0.763-0.973, 0.309-1.131C 29.454,9.914, 24.4,8.003, 23.52,8.003l-1.44,0 l0-4.8 L 9.92,3.203 l0,4.8 L 8.48,8.003 c-0.88,0-5.934,1.91-6.389,2.069C 1.637,10.23, 1.486,11.203, 2.4,11.203z M 29.92,12.963L 2.080,12.963 c-0.88,0-1.76,1.040-1.76,1.92l0,5.6 c0,0.88, 0.88,1.92, 1.76,1.92l 3.171,0 l-1.411,8l 24.32,0 l-1.411-8L 29.92,22.403 c 0.88,0, 1.76-1.040, 1.76-1.92l0-5.6 C 31.68,14.003, 30.8,12.963, 29.92,12.963z M 7.040,27.203l 2.24-10.4l 13.44,0 l 2.238,10.4L 7.040,27.203 z"></path></g></svg>