<?xml version="1.0" encoding="utf-8"?> <!-- Generator: IcoMoon.io --> <!DOCTYPE svg PUBLIC "-//W3C//DTD SVG 1.1//EN" "http://www.w3.org/Graphics/SVG/1.1/DTD/svg11.dtd"> <svg width="200.00001525878906" height="200.00001525878906" viewBox="0 0 200.00001525878906 200.00001525878906" xmlns="http://www.w3.org/2000/svg" xmlns:xlink="http://www.w3.org/1999/xlink" fill="#ece1c3"><g><path d="M 196.25,70l-18.75-24.988c-0.731-0.981-1.6-1.831-2.5-2.644L 175,12.5 c0-6.9-5.6-12.5-12.5-12.5L 37.5,0 C 30.594,0, 25,5.6, 25,12.5l0,29.875 C 24.1,43.181, 23.231,44.025, 22.5,45l-18.744,24.994C 1.331,73.219,0,77.212,0,81.25l0,6.25 c0,10.337, 8.413,18.75, 18.75,18.75l0,0 l0,81.25 c0,6.9, 5.6,12.5, 12.5,12.5l 137.5,0 c 6.9,0, 12.5-5.6, 12.5-12.5L 181.25,106.25 l0,0c 10.337,0, 18.75-8.413, 18.75-18.75l0-6.25 C 200,77.212, 198.669,73.219, 196.25,70z M 162.5,12.5l0,25 L 37.5,37.5 l0,0 L 37.5,12.5 L 162.5,12.5 z M 63.706,93.75L 37.525,93.75 l 25-43.75l 13.681,0 L 63.706,93.75z M 82.713,50L 96.875,50 l0,43.75 l-26.663,0 L 82.713,50z M 103.125,50l 14.162,0 l 12.5,43.75L 103.125,93.75 L 103.125,50 z M 123.781,50l 13.681,0 l 25,43.75l-26.181,0 L 123.781,50z M 12.5,87.5l0-6.25 c0-1.356, 0.438-2.669, 1.25-3.75l 18.75-25C 33.681,50.925, 35.531,50, 37.5,50l 17.825,0 l-25,43.75L 18.75,93.75 C 15.3,93.75, 12.5,90.956, 12.5,87.5z M 125,187.5l-46.875,0 L 78.125,125 L 125,125 L 125,187.5 z M 168.75,187.5l-37.5,0 L 131.25,125 c0-3.456-2.806-6.25-6.25-6.25l-46.875,0 c-3.45,0-6.25,2.794-6.25,6.25l0,62.5 L 31.25,187.5 L 31.25,106.25 l 137.5,0 L 168.75,187.5 z M 187.5,87.5c0,3.456-2.794,6.25-6.25,6.25l-11.588,0 l-25-43.75L 162.5,50 l0,0 c 1.962,0, 3.819,0.925, 4.994,2.5l 18.75,25C 187.063,78.581, 187.5,79.894, 187.5,81.25L 187.5,87.5 z"></path></g></svg>