<?xml version="1.0" encoding="utf-8"?> <!-- Generator: IcoMoon.io --> <!DOCTYPE svg PUBLIC "-//W3C//DTD SVG 1.1//EN" "http://www.w3.org/Graphics/SVG/1.1/DTD/svg11.dtd"> <svg width="100" height="100" viewBox="0 0 100 100" xmlns="http://www.w3.org/2000/svg" xmlns:xlink="http://www.w3.org/1999/xlink" fill="#386166"><g><path d="M 74.1,72.24c-12.325-4.49-16.265-8.28-16.265-16.395c0-4.87, 3.765-3.28, 5.415-12.2c 0.685-3.7, 4.010-0.060, 4.65-8.505 c0-3.365-1.815-4.205-1.815-4.205s 0.925-4.985, 1.285-8.815C 67.81,17.34, 64.61,5, 47.5,5C 30.395,5, 27.185,17.34, 27.635,22.12 C 27.995,25.95, 28.92,30.935, 28.92,30.935S 27.1,31.77, 27.1,35.14c 0.635,8.445, 3.96,4.805, 4.645,8.505 c 1.655,8.92, 5.42,7.33, 5.42,12.2c0,8.115-3.94,11.905-16.265,16.395c-12.37,4.5-20.4,9.095-20.4,12.23c0,3.13,0,10.525,0,10.525 l 47,0 l 47,0 c0,0,0-7.395,0-10.525C 94.5,81.34, 86.465,76.745, 74.1,72.24z"></path></g></svg>